<?xml version="1.0" encoding="UTF-8"?>
<svg width="107px" height="47px" viewBox="0 0 107 47" version="1.1" xmlns="http://www.w3.org/2000/svg" xmlns:xlink="http://www.w3.org/1999/xlink">
    <!-- Generator: Sketch 45.2 (43514) - http://www.bohemiancoding.com/sketch -->
    <title>Bando Logo Dark</title>
    <desc>Created with Sketch.</desc>
    <defs></defs>
    <g id="Page-1" stroke="none" stroke-width="1" fill="none" fill-rule="evenodd">
        <g id="Desktop-HD" transform="translate(-674.000000, -48.000000)" fill="#A59A6C">
            <g id="Bando-Logo-Light" transform="translate(674.341080, 48.244141)">
                <path d="M12.4047746,39.9253656 L6.55491076,39.9253656 L6.55491076,24.261812 C8.0521888,24.261812 9.41165408,24.1203165 10.6376133,23.8360391 C12.4492766,24.9332725 13.2661042,27.0261198 13.085225,30.1132947 L12.4047746,39.9253656 Z M11.1894703,16.600201 C9.9092361,18.247308 8.36484881,19.0688313 6.55491076,19.0688313 L6.55491076,8.93851468 L13.1098215,8.93851468 L13.1098215,9.7072548 C13.1098215,12.6563476 12.4711021,14.955801 11.1894703,16.600201 Z M0,2.97950489 L0,45.8843753 L17.2367944,45.8843753 L18.1638963,30.1817747 L18.2251816,28.883446 C18.2251816,25.2977101 17.1324791,22.5170684 14.950986,20.5376064 C17.2980796,17.6538814 18.4729303,13.140395 18.4729303,6.99714718 L18.4729303,2.97950489 L0,2.97950489 Z" id="Fill-1"></path>
                <polygon id="Fill-3" points="46.4802763 2.97950489 46.4802763 45.8843753 52.6780432 45.8843753 52.6780432 8.72999192 58.7541314 8.72999192 58.7541314 45.8843753 64.9532067 45.8843753 64.9532067 2.97950489"></polygon>
                <path d="M77.3035022,40.5212665 L73.8917213,40.5212665 L73.8917213,8.93851468 L77.3035022,8.93851468 C78.25834,8.93851468 79.0317154,9.21801967 79.6221882,9.77834188 C80.2141013,10.3360396 80.487735,11.1548712 80.4416493,12.2335242 L79.6221882,37.226257 C79.5775427,39.4242422 78.8041673,40.5212665 77.3035022,40.5212665 Z M67.3368106,2.97950489 L67.3368106,45.8843753 L76.6354235,45.8843753 C78.9067605,45.8843753 80.8601626,45.0910247 82.4943216,43.5043235 C84.1258638,41.9189272 84.9828486,39.9707817 85.0652762,37.6624968 L85.8097409,11.3266493 C85.8097409,9.71776562 85.3845194,8.27590309 84.5393099,6.99714718 C83.6914836,5.72100098 82.5636654,4.73192243 81.1610886,4.03121638 C79.7545867,3.33051034 78.2460317,2.97950489 76.6354235,2.97950489 L67.3368106,2.97950489 Z" id="Fill-5"></path>
                <path d="M94.7768828,37.1417101 L94.1523546,14.0940221 C94.1523546,12.3960612 94.4026929,11.112429 94.9020519,10.2431255 C95.4027285,9.37382202 96.2538788,8.93851468 97.4620904,8.93851468 C98.667667,8.93851468 99.5109118,9.36333268 99.9905073,10.2116575 C100.467468,11.0612935 100.707265,12.3554151 100.707265,14.0940221 L100.082737,37.1417101 C99.9997303,38.5499031 99.7704731,39.5647462 99.3962832,40.184928 C99.0220933,40.806421 98.3751665,41.1171675 97.4620904,41.1171675 C96.5463793,41.1171675 95.891547,40.806421 95.496276,40.184928 C95.0983699,39.5647462 94.8598897,38.5499031 94.7768828,37.1417101 Z M90.438987,5.63741442 C88.8650107,7.40848465 88.1176275,9.86033446 88.1993925,12.9903555 L88.9250569,37.5831915 C89.0068219,40.3428268 89.75165,42.515583 91.1646514,44.1014603 C92.5776529,45.6886418 94.6754363,46.4802763 97.4605568,46.4802763 C100.204795,46.4802763 102.261696,45.6886418 103.635092,44.1014603 C105.004656,42.515583 105.772481,40.3428268 105.934733,37.5831915 L106.660397,12.9903555 C106.740885,9.90076389 105.994779,7.46065167 104.420803,5.66871463 C102.848104,3.87677759 100.525467,2.97950489 97.4605568,2.97950489 C94.352209,2.97950489 92.0116858,3.86634418 90.438987,5.63741442 Z" id="Fill-7"></path>
                <polygon id="Fill-9" points="44.6932337 8.93851468 41.3073276 8.93851468 41.1171675 -3.01971989e-15 45.8843753 -3.01971989e-15"></polygon>
                <path d="M27.431994,17.2811284 L27.431994,16.7557295 C27.2996349,13.9956524 27.8067794,12.0035727 28.950641,10.778104 C30.0945026,9.55263529 31.7650143,8.93851468 33.9663558,8.93851468 L33.9663558,17.2811284 L27.431994,17.2811284 Z M39.3294646,2.97950489 C39.3294646,2.97950489 34.1594245,3.01080138 32.9456344,3.04731394 C28.9985303,3.17510791 26.3501423,4.2300602 24.0388456,6.35039694 C21.7275489,8.4720377 20.6744652,11.7777287 20.8822075,16.2674701 L21.8111685,45.8843753 L28.0003219,45.8843753 L27.3196064,22.5072064 L33.1376981,22.5072064 L33.1376981,45.8843753 L39.3294646,45.8843753 L39.3294646,2.97950489 Z" id="Fill-11"></path>
            </g>
        </g>
    </g>
</svg>