<svg xmlns="http://www.w3.org/2000/svg" viewBox="824 2128 77 86"><defs><style>.a{fill:#a89a5e;}</style></defs><g transform="translate(824.177 2128.465)"><path class="a" d="M31.823,47.535a19.575,19.575,0,0,0-13-5v-43h-19v10h9v76h26l2-22v-2C36.823,55.163,35.363,50.6,31.823,47.535Zm-5,16-1,13h-7v-25a7.028,7.028,0,0,1,6,3C26.475,56.3,27.059,59.523,26.823,63.535Z"/><path class="a" d="M60.775,42.535v-43h-9v43c-4.956,0-9.578,1.05-13,4-3.422,3.068-5,7.746-5,14v2l1,23h26v-34h10v-9Zm-9,34h-8l-1-14c-.236-4.012.348-6.23,2-8a9.623,9.623,0,0,1,7-3Z" transform="translate(6.048)"/></g></svg>