<svg xmlns="http://www.w3.org/2000/svg" viewBox="0 0 17 17">
  <defs>
    <style>
      .cls-1 {
        fill: #4a4a4a;
      }
    </style>
  </defs>
  <path id="Path_11" data-name="Path 11" class="cls-1" d="M14.592,0H2.408A2.434,2.434,0,0,0,0,2.408V14.592A2.388,2.388,0,0,0,2.408,17H14.592A2.388,2.388,0,0,0,17,14.592V2.408A2.483,2.483,0,0,0,14.592,0Zm-1.2,9.138H11.829v5.879H9.208V9.138H8.146V7.154H9.208V5.95a2.3,2.3,0,0,1,2.621-2.621h1.983V5.313H12.679c-.779,0-.779.283-.779.779V7.225h1.771Z"/>
</svg>
