<svg xmlns="http://www.w3.org/2000/svg" viewBox="0 0 16.717 16.717">
  <defs>
    <style>
      .cls-1 {
        fill: #4a4a4a;
      }
    </style>
  </defs>
  <g id="surface1_2_" transform="translate(0)">
    <path id="Path_12" data-name="Path 12" class="cls-1" d="M42.767,0A2.282,2.282,0,0,0,40.5,2.267V14.45a2.282,2.282,0,0,0,2.267,2.267H54.95a2.282,2.282,0,0,0,2.267-2.267V2.267A2.282,2.282,0,0,0,54.95,0Zm9.917,2.267H54.95V4.533H52.683ZM48.858,5.313a3.046,3.046,0,1,1-3.046,3.046A3.023,3.023,0,0,1,48.858,5.313Zm-6.8,1.558h2.55a5.517,5.517,0,0,0-.283,1.488,4.533,4.533,0,1,0,9.067,0,3.285,3.285,0,0,0-.283-1.488h2.621V14.45a.786.786,0,0,1-.779.779H42.767a.786.786,0,0,1-.779-.779V6.871Z" transform="translate(-40.5)"/>
  </g>
</svg>
