<svg xmlns="http://www.w3.org/2000/svg" viewBox="0 0 16.648 16.646">
  <defs>
    <style>
      .cls-1 {
        fill: #4a4a4a;
      }
    </style>
  </defs>
  <g id="Group_13" data-name="Group 13" transform="translate(0)">
    <path id="Path_13" data-name="Path 13" class="cls-1" d="M94.5,0H84.017A3.144,3.144,0,0,0,80.9,3.117V13.529a3.144,3.144,0,0,0,3.117,3.117H94.429a3.144,3.144,0,0,0,3.117-3.117V3.188A3.057,3.057,0,0,0,94.5,0ZM86.071,14.238H83.45V6.446h2.621ZM84.725,5.454h0a1.321,1.321,0,0,1-1.417-1.346,1.419,1.419,0,0,1,2.833,0A1.362,1.362,0,0,1,84.725,5.454Zm10.342,8.783H92.446V9.988c0-.992-.283-1.7-1.2-1.7a1.412,1.412,0,0,0-1.275.921,1.572,1.572,0,0,0-.071.638v4.392H87.275V6.446H89.9V7.508a2.559,2.559,0,0,1,2.267-1.275c1.629,0,2.9,1.063,2.9,3.4v4.6Z" transform="translate(-80.9)"/>
  </g>
</svg>
